<?xml version="1.0" standalone="no"?>
<!DOCTYPE svg PUBLIC "-//W3C//DTD SVG 20010904//EN"
 "http://www.w3.org/TR/2001/REC-SVG-20010904/DTD/svg10.dtd">
<svg version="1.0" xmlns="http://www.w3.org/2000/svg"
 width="24.000000pt" height="24.000000pt" viewBox="0 0 24.000000 24.000000"
 preserveAspectRatio="xMidYMid meet">

<g transform="translate(0.000000,24.000000) scale(0.100000,-0.100000)"
fill="#000000" stroke="none">
<path d="M63 220 c-56 -34 -77 -99 -48 -150 12 -22 14 -23 20 -7 4 9 14 17 22
17 9 0 22 8 29 18 10 14 10 20 -3 35 -15 15 -15 19 2 37 l18 20 22 -20 c12
-11 27 -20 35 -20 10 0 9 -4 -3 -17 -13 -15 -13 -21 -3 -36 7 -9 20 -17 29
-17 8 0 18 -8 22 -17 6 -16 8 -15 20 7 21 36 18 73 -8 111 -40 60 -97 74 -154
39z"/>
</g>
</svg>
