<?xml version="1.0" standalone="no"?>
<!DOCTYPE svg PUBLIC "-//W3C//DTD SVG 20010904//EN"
 "http://www.w3.org/TR/2001/REC-SVG-20010904/DTD/svg10.dtd">
<svg version="1.0" xmlns="http://www.w3.org/2000/svg"
 width="24.000000pt" height="24.000000pt" viewBox="0 0 24.000000 24.000000"
 preserveAspectRatio="xMidYMid meet">

<g transform="translate(0.000000,24.000000) scale(0.100000,-0.100000)"
fill="#000000" stroke="none">
<path d="M108 202 c-21 -2 -28 -9 -28 -25 0 -12 4 -17 8 -11 9 13 55 13 64 0
4 -6 10 -7 14 -3 14 14 -30 43 -58 39z"/>
<path d="M55 66 c-27 -19 -12 -43 34 -56 71 -19 146 30 92 60 -28 14 -28 14
-41 -25 -6 -19 -15 -35 -20 -35 -5 0 -14 16 -20 35 -13 39 -18 41 -45 21z"/>
</g>
</svg>
