<?xml version="1.0" standalone="no"?>
<!DOCTYPE svg PUBLIC "-//W3C//DTD SVG 20010904//EN"
 "http://www.w3.org/TR/2001/REC-SVG-20010904/DTD/svg10.dtd">
<svg version="1.0" xmlns="http://www.w3.org/2000/svg"
 width="24.000000pt" height="24.000000pt" viewBox="0 0 24.000000 24.000000"
 preserveAspectRatio="xMidYMid meet">

<g transform="translate(0.000000,24.000000) scale(0.100000,-0.100000)"
fill="#000000" stroke="none">
<path d="M70 223 c-50 -26 -76 -82 -61 -133 16 -54 33 -65 62 -41 21 17 22 22
11 45 -35 78 20 152 73 99 17 -16 17 -49 0 -114 -5 -21 -2 -27 19 -37 23 -10
28 -9 40 11 24 37 28 72 13 110 -27 64 -97 91 -157 60z"/>
</g>
</svg>
